<?xml version="1.0" standalone="no"?>
<!DOCTYPE svg PUBLIC "-//W3C//DTD SVG 20010904//EN"
 "http://www.w3.org/TR/2001/REC-SVG-20010904/DTD/svg10.dtd">
<svg version="1.0" xmlns="http://www.w3.org/2000/svg"
 width="1024.000000pt" height="1024.000000pt" viewBox="0 0 1024.000000 1024.000000"
 preserveAspectRatio="xMidYMid meet">

<g transform="translate(0.000000,1024.000000) scale(0.100000,-0.100000)"
fill="#000000" stroke="none">
<path d="M2529 8890 c-22 -13 -55 -93 -68 -165 -56 -309 -65 -332 -207 -522
-53 -71 -111 -156 -130 -189 -75 -134 -126 -296 -145 -459 -14 -122 -5 -462
15 -585 l15 -85 -6 75 c-3 41 -7 84 -10 95 -2 11 -6 117 -8 235 -4 222 5 321
40 445 9 33 21 77 27 97 6 22 15 35 21 31 6 -3 7 -1 3 6 -10 15 60 153 121
239 46 65 112 152 124 162 3 3 14 21 25 40 10 19 22 37 26 40 16 13 59 137 74
220 3 13 11 31 17 39 9 12 9 13 -1 7 -9 -6 -11 -2 -7 16 2 12 12 58 21 101 17
86 40 143 60 151 15 6 54 -10 274 -112 30 -14 57 -26 60 -27 3 -1 21 -8 40
-17 19 -8 52 -21 73 -28 20 -8 37 -17 37 -20 0 -4 6 -7 13 -7 6 -1 60 -19 119
-42 59 -23 114 -41 123 -41 9 0 14 -3 12 -7 -3 -5 5 -9 16 -9 26 -2 31 -3 212
-49 182 -47 308 -86 317 -98 3 -6 17 -11 30 -13 34 -3 130 -49 121 -58 -4 -4
1 -4 11 0 12 4 17 4 13 -2 -3 -6 3 -11 14 -11 23 -2 171 -102 165 -112 -3 -4
5 -7 16 -7 18 0 17 3 -10 26 -52 43 -185 119 -280 160 -98 42 -282 99 -487
150 -189 47 -318 94 -612 224 -145 64 -264 116 -265 116 -2 0 -10 -5 -19 -10z"/>
<path d="M6605 8669 c-101 -13 -295 -63 -404 -104 -272 -102 -721 -348 -1039
-570 -202 -141 -197 -135 -183 -178 15 -44 87 -112 148 -139 106 -47 302 -27
525 53 62 22 156 56 208 74 224 80 427 95 543 42 121 -55 210 -188 247 -367
42 -203 16 -370 -89 -575 -106 -208 -286 -399 -671 -710 -297 -239 -414 -354
-464 -456 -55 -111 -60 -239 -9 -239 10 0 86 43 168 96 198 126 585 357 590
352 2 -2 -180 -126 -404 -276 -430 -286 -476 -323 -505 -409 -38 -110 -8 -283
48 -283 31 0 846 493 1129 682 49 33 91 58 93 56 5 -6 -265 -201 -471 -341
-205 -138 -371 -241 -605 -372 -242 -135 -293 -193 -276 -313 12 -90 56 -135
128 -135 119 0 606 256 1035 545 364 244 616 450 899 732 288 288 407 445 550
728 187 369 252 629 241 953 -4 88 -13 192 -22 230 -67 300 -215 526 -460 700
-145 103 -312 174 -497 210 -99 20 -355 28 -453 14z"/>
<path d="M4240 8205 c17 -26 79 -79 86 -73 3 3 -19 25 -47 49 -28 24 -46 34
-39 24z"/>
<path d="M4335 8110 c4 -8 18 -28 29 -45 17 -25 21 -45 21 -125 0 -70 5 -103
18 -127 10 -18 17 -35 17 -38 0 -4 18 -24 81 -91 16 -17 26 -34 22 -38 -5 -4
-1 -6 7 -4 8 2 14 -3 12 -10 -1 -8 2 -11 7 -8 5 3 15 -2 22 -11 8 -9 46 -42
86 -73 40 -32 69 -61 65 -65 -4 -5 -1 -5 6 -1 7 4 15 1 18 -8 3 -9 9 -14 13
-12 11 7 62 -40 53 -49 -4 -5 -2 -5 5 -1 13 7 24 2 107 -51 28 -18 56 -33 63
-33 7 0 13 -4 13 -9 0 -4 21 -16 48 -26 61 -23 72 -32 72 -60 0 -36 -41 -135
-53 -128 -6 3 -7 1 -3 -5 4 -6 0 -24 -8 -40 -25 -48 -96 -133 -106 -127 -6 4
-7 -1 -3 -11 4 -11 2 -15 -4 -11 -6 4 -18 -8 -27 -26 -39 -77 -130 -201 -181
-248 -63 -57 -171 -123 -191 -115 -8 3 -12 2 -9 -4 5 -8 -14 -15 -95 -35 -8
-2 -37 -6 -65 -10 -73 -9 -71 -19 3 -11 78 7 186 44 259 88 75 44 178 149 233
237 25 40 71 102 103 139 68 78 147 229 154 295 l5 46 -71 35 c-211 104 -373
219 -521 368 -127 128 -145 163 -145 283 -1 93 -14 135 -51 166 -16 12 -17 12
-9 -1z"/>
<path d="M3872 7868 c-15 -4 -66 -15 -114 -24 -49 -9 -88 -19 -88 -23 0 -4 51
4 113 16 116 24 236 33 273 20 29 -10 47 -57 42 -106 -2 -25 0 -37 6 -31 22
22 -7 140 -35 140 -6 0 -8 4 -5 8 6 10 -155 10 -192 0z"/>
<path d="M3677 7779 c13 -13 112 -18 120 -6 3 5 -20 7 -51 5 -31 -1 -56 0 -56
5 0 4 -5 7 -12 7 -9 0 -9 -3 -1 -11z"/>
<path d="M3845 7759 c22 -4 51 -8 65 -7 16 0 11 3 -15 9 -22 4 -51 8 -65 7
-16 0 -11 -3 15 -9z"/>
<path d="M3940 7746 c0 -2 11 -6 25 -8 14 -3 25 -1 25 3 0 5 -11 9 -25 9 -14
0 -25 -2 -25 -4z"/>
<path d="M4002 7735 c3 -3 18 -8 34 -11 15 -3 31 -7 36 -10 4 -3 8 -1 8 4 0 5
-14 12 -31 16 -39 7 -54 8 -47 1z"/>
<path d="M3190 7594 c-81 -27 -154 -64 -210 -103 -44 -32 -112 -91 -104 -91 3
0 -12 -21 -34 -47 -40 -49 -104 -146 -143 -218 -12 -22 -31 -48 -42 -57 -11
-10 -17 -18 -13 -18 3 0 -1 -14 -9 -30 -9 -18 -21 -28 -27 -24 -7 4 -8 3 -4
-4 4 -6 0 -25 -9 -41 -27 -54 -96 -146 -107 -143 -5 1 -7 -2 -3 -8 10 -16
-139 -173 -197 -208 -16 -9 -28 -20 -28 -25 0 -13 58 30 124 93 80 74 159 183
263 359 237 402 327 490 583 565 47 14 74 25 60 25 -14 0 -59 -11 -100 -25z"/>
<path d="M3306 7559 c-11 -93 -16 -215 -10 -246 5 -26 11 -33 30 -33 13 0 24
4 24 9 0 5 -9 7 -20 4 -17 -5 -20 0 -21 33 -4 89 5 226 15 242 2 4 1 14 -4 22
-6 9 -10 -1 -14 -31z"/>
<path d="M3570 7350 c-9 -6 -10 -10 -3 -10 6 0 15 5 18 10 8 12 4 12 -15 0z"/>
<path d="M3385 7299 c-16 -4 26 -7 94 -8 68 0 122 2 119 5 -9 8 -178 10 -213
3z"/>
<path d="M3649 7280 c52 -11 161 -61 214 -97 20 -14 61 -60 91 -102 29 -42 81
-104 115 -138 62 -62 151 -131 151 -116 -1 4 -21 21 -45 36 -25 16 -43 33 -39
38 3 5 2 8 -3 7 -11 -4 -69 52 -65 64 1 5 -2 7 -7 4 -13 -8 -34 21 -25 36 4 7
3 10 -1 5 -10 -9 -66 43 -59 55 3 4 1 8 -5 8 -6 0 -17 13 -26 29 -8 17 -30 44
-47 60 -49 46 -185 110 -243 116 l-50 4 44 -9z"/>
<path d="M3770 7276 c0 -2 8 -10 18 -17 15 -13 16 -12 3 4 -13 16 -21 21 -21
13z"/>
<path d="M3755 6919 c-47 -11 -195 -59 -195 -64 0 -1 62 -3 138 -3 75 0 156
-5 180 -10 30 -7 42 -7 42 2 0 6 3 21 6 34 5 18 0 25 -30 37 -39 17 -81 18
-141 4z"/>
<path d="M2012 6865 c-3 -47 79 -375 94 -375 17 0 144 73 144 83 0 8 -3 9 -8
1 -12 -18 -53 -36 -68 -30 -9 3 -12 1 -9 -4 3 -5 -5 -15 -20 -22 -33 -15 -47
4 -66 82 -15 63 -14 60 -21 80 -14 35 -30 140 -24 155 3 9 2 13 -3 10 -5 -3
-12 5 -14 17 -4 20 -4 20 -5 3z"/>
<path d="M4230 6821 c0 -4 32 -22 71 -39 42 -19 66 -26 59 -17 -7 8 -18 15
-25 15 -6 0 -33 11 -59 25 -25 13 -46 21 -46 16z"/>
<path d="M4356 6728 c-3 -7 -7 -26 -11 -43 -10 -47 -63 -174 -85 -205 -27 -38
-26 -40 18 -39 34 1 33 2 -6 15 -10 3 -7 15 11 46 21 37 47 100 73 173 7 22
12 65 7 65 -2 0 -5 -6 -7 -12z"/>
<path d="M3770 6213 c-248 -42 -581 -224 -750 -411 -58 -64 -116 -161 -108
-180 5 -15 159 -138 332 -267 505 -377 1230 -805 1361 -805 68 0 105 45 113
135 9 122 -27 167 -229 285 -251 147 -296 177 -941 614 -120 81 -218 150 -218
152 0 14 238 -130 528 -320 185 -121 537 -344 628 -399 82 -49 97 -48 125 9
30 63 36 163 15 239 -31 103 -92 152 -575 454 -151 94 -284 174 -297 177 -13
4 -24 10 -24 15 0 15 121 -36 215 -91 50 -29 181 -113 293 -187 112 -73 207
-133 212 -133 21 0 32 46 28 115 -5 82 -37 161 -98 241 -47 62 -205 191 -356
291 -108 71 -113 73 -170 72 -33 -1 -70 -4 -84 -6z"/>
<path d="M8686 4633 c-3 -10 -8 -36 -12 -57 -6 -35 -5 -38 8 -25 10 8 14 25
11 42 -2 16 1 35 8 43 7 9 8 14 1 14 -6 0 -13 -8 -16 -17z"/>
<path d="M8878 4643 c190 -4 173 17 139 -174 -13 -69 -21 -131 -19 -137 3 -9
49 -12 152 -12 149 0 149 0 145 -22 -2 -13 -11 -72 -21 -133 -10 -60 -22 -113
-28 -117 -16 -11 -145 -8 -152 3 -4 6 -10 6 -18 0 -6 -5 -36 -11 -66 -13 -50
-3 -55 -5 -67 -35 -7 -18 -9 -33 -4 -33 5 0 11 14 15 30 l6 30 142 1 c79 1
146 1 150 0 4 0 10 9 13 22 7 29 45 256 45 268 0 5 -68 9 -151 9 l-152 0 7 48
c6 48 9 67 26 161 6 30 10 67 10 83 l0 28 -167 -2 -168 -2 163 -3z"/>
<path d="M8666 4513 c-2 -10 -7 -40 -10 -68 -5 -47 -5 -46 9 14 8 35 13 66 11
68 -2 3 -7 -4 -10 -14z"/>
<path d="M8639 4365 l-4 -30 -153 -3 c-147 -2 -153 -3 -161 -25 -14 -39 -52
-259 -46 -266 4 -3 70 -8 148 -11 l142 -5 0 -50 c0 -27 -4 -75 -9 -105 -4 -30
-6 -53 -3 -50 3 3 11 37 17 75 6 39 13 80 15 92 7 43 -22 53 -161 57 -71 3
-132 5 -136 5 -4 1 -5 7 -3 14 2 6 7 30 10 52 3 22 13 77 22 123 l16 82 147 0
c159 0 176 5 168 52 -4 20 -5 19 -9 -7z"/>
<path d="M1380 3982 c0 -5 18 -98 40 -208 41 -204 170 -870 170 -879 0 -3 75
-4 166 -3 l166 3 180 345 c98 190 225 432 281 539 56 107 103 197 104 200 2 3
-63 6 -143 6 l-145 0 -166 -325 c-90 -179 -177 -354 -193 -389 -20 -48 -29
-59 -33 -45 -3 10 -34 187 -68 392 l-63 372 -148 0 c-81 0 -148 -4 -148 -8z"/>
<path d="M2594 3975 c-2 -5 -31 -185 -64 -400 -60 -385 -95 -604 -106 -657
l-6 -28 141 0 c138 0 141 0 146 23 5 22 175 1053 175 1062 0 9 -283 10 -286 0z"/>
<path d="M4072 3838 c-44 -84 -168 -330 -276 -545 l-196 -393 145 0 145 0 164
330 c91 182 175 359 188 395 24 67 38 83 38 41 0 -13 32 -190 70 -394 39 -203
70 -373 70 -376 0 -3 68 -6 151 -6 138 0 150 1 145 18 -3 9 -23 116 -46 237
-22 121 -68 361 -102 533 l-60 312 -178 0 -178 0 -80 -152z"/>
<path d="M4964 3750 c-20 -129 -60 -374 -88 -545 l-52 -310 146 -3 c80 -2 231
0 336 3 l190 7 12 82 c7 44 15 98 18 119 l7 37 -192 0 c-175 0 -191 1 -191 18
0 9 29 197 65 416 36 220 65 401 65 402 0 2 -63 4 -139 6 l-139 3 -38 -235z"/>
<path d="M5635 3963 c11 -44 190 -835 216 -955 l24 -108 85 0 86 0 304 538
c167 295 305 540 307 545 2 4 -36 7 -86 7 l-90 0 -29 -52 c-180 -321 -455
-798 -458 -795 -2 1 -22 91 -44 197 -22 107 -66 296 -98 420 l-57 225 -84 3
-83 3 7 -28z"/>
<path d="M6775 3958 c-3 -18 -41 -253 -85 -523 -44 -269 -82 -501 -84 -515
l-5 -25 317 3 c216 2 319 7 323 14 4 6 10 36 14 66 4 30 9 61 12 68 4 11 -40
14 -229 16 l-233 3 25 154 25 153 211 -1 c163 -2 213 1 221 11 9 11 33 114 33
140 0 4 -97 8 -215 8 -118 0 -215 3 -215 6 0 10 39 245 45 272 l5 22 239 0
238 0 12 69 c6 39 11 75 11 80 0 8 -105 11 -330 11 l-329 0 -6 -32z"/>
<path d="M7576 3973 c-2 -10 -7 -38 -11 -63 -4 -25 -9 -53 -11 -62 -5 -17 7
-18 151 -18 l155 0 -5 -22 c-2 -13 -34 -210 -70 -438 -35 -228 -67 -427 -70
-442 l-4 -28 87 0 88 0 74 465 74 465 155 2 155 3 7 27 c4 15 10 50 14 77 l7
51 -395 0 c-368 0 -396 -1 -401 -17z"/>
<path d="M2991 3883 c-7 -54 -14 -106 -17 -115 -5 -17 6 -18 124 -18 71 0 131
-2 134 -5 2 -3 -23 -173 -57 -378 -34 -206 -65 -396 -69 -423 l-6 -49 137 3
c76 2 140 5 142 7 3 4 64 372 115 695 l22 145 132 3 c73 1 132 4 133 5 0 1 8
53 18 115 l17 112 -406 0 -407 0 -12 -97z"/>
<path d="M8929 3959 c0 -2 -2 -18 -5 -36 -2 -18 -8 -51 -13 -73 -5 -22 -6 -40
-1 -40 9 0 33 140 25 148 -3 3 -5 3 -6 1z"/>
<path d="M8540 3788 c0 -13 -3 -33 -6 -45 l-6 -23 185 0 186 0 7 35 c3 20 4
39 0 42 -3 4 -6 -3 -6 -15 0 -52 0 -52 -184 -52 l-172 0 4 40 c2 22 1 40 -2
40 -3 0 -6 -10 -6 -22z"/>
<path d="M2338 2510 c-17 -30 -17 -30 6 -30 13 0 31 12 44 30 l23 30 -28 0
c-21 0 -33 -8 -45 -30z"/>
<path d="M6886 2518 c-21 -29 -20 -38 2 -38 18 0 40 19 56 48 13 23 -42 13
-58 -10z"/>
<path d="M1645 2459 c-121 -37 -143 -215 -36 -286 41 -27 122 -31 177 -8 35
14 35 15 17 38 -17 23 -19 23 -52 10 -68 -29 -136 8 -147 79 -7 40 15 91 45
108 26 13 74 13 105 -1 20 -9 29 -9 41 1 25 21 17 37 -25 54 -44 18 -79 19
-125 5z"/>
<path d="M3295 2456 c-58 -26 -79 -60 -83 -135 -5 -80 12 -122 60 -151 58 -35
141 -34 191 2 16 12 16 15 2 35 -15 21 -17 21 -52 7 -80 -34 -143 10 -143 98
0 83 61 120 146 88 19 -7 30 -7 40 1 23 19 16 36 -20 53 -41 19 -100 20 -141
2z"/>
<path d="M1970 2305 l0 -155 90 0 90 0 0 30 0 30 -60 0 -60 0 0 125 0 125 -30
0 -30 0 0 -155z"/>
<path d="M2306 2438 c-3 -13 -6 -83 -6 -155 l0 -133 35 0 35 0 0 155 0 155
-29 0 c-21 0 -30 -6 -35 -22z"/>
<path d="M2540 2305 l0 -155 36 0 36 0 -4 100 c-1 55 -1 100 2 99 3 0 38 -45
79 -100 57 -77 79 -99 97 -99 l24 0 0 155 0 155 -30 0 -29 0 -3 -95 -3 -95
-73 95 c-63 82 -77 95 -102 95 l-30 0 0 -155z"/>
<path d="M2980 2305 l0 -155 35 0 35 0 0 155 0 155 -35 0 -35 0 0 -155z"/>
<path d="M3716 2428 c-45 -109 -106 -263 -106 -270 0 -4 14 -8 31 -8 25 0 33
6 42 30 11 29 14 30 70 30 56 0 58 -1 68 -30 9 -26 16 -30 46 -30 40 0 43 -16
-30 170 -49 123 -56 135 -81 138 -22 3 -29 -2 -40 -30z m68 -135 c7 -21 4 -23
-33 -23 l-40 0 13 33 c7 17 17 41 21 52 7 18 8 17 20 -10 7 -16 16 -40 19 -52z"/>
<path d="M4210 2453 c0 -4 26 -74 57 -156 l56 -148 36 3 36 3 57 145 c31 80
57 148 58 153 0 4 -15 7 -32 7 -33 0 -33 -1 -70 -104 -21 -57 -38 -109 -38
-115 0 -6 -3 -11 -7 -11 -8 0 -83 199 -83 219 0 6 -16 11 -35 11 -19 0 -35 -3
-35 -7z"/>
<path d="M4650 2305 l0 -155 95 0 95 0 0 30 0 30 -65 0 -65 0 0 35 0 35 50 0
c49 0 50 1 50 30 0 29 -1 30 -51 30 l-50 0 3 33 c3 32 3 32 66 35 58 3 62 4
62 27 0 25 -1 25 -95 25 l-95 0 0 -155z"/>
<path d="M4970 2435 c0 -23 4 -25 45 -25 l45 0 0 -130 0 -130 30 0 30 0 0 130
0 130 45 0 c41 0 45 2 45 25 l0 25 -120 0 -120 0 0 -25z"/>
<path d="M5355 2305 l0 -155 91 0 c87 0 92 1 98 23 3 12 6 25 6 30 0 4 -29 7
-65 7 l-65 0 0 35 0 35 50 0 c49 0 50 1 50 30 0 29 -1 30 -50 30 l-50 0 0 35
0 35 65 0 c63 0 65 1 65 25 0 25 0 25 -97 25 l-98 0 0 -155z"/>
<path d="M5700 2305 l0 -155 35 0 35 0 0 55 c0 51 2 55 23 55 18 0 29 -12 50
-55 25 -51 29 -55 63 -55 19 0 34 3 32 8 -2 4 -16 31 -31 60 l-28 53 26 30
c35 43 34 92 -4 130 -28 28 -34 29 -115 29 l-86 0 0 -155z m158 93 c7 -7 12
-21 12 -33 0 -31 -19 -45 -62 -45 l-38 0 0 45 0 45 38 0 c21 0 43 -5 50 -12z"/>
<path d="M6090 2305 l0 -155 35 0 35 0 0 155 0 155 -35 0 -35 0 0 -155z"/>
<path d="M6330 2305 l0 -155 30 0 29 0 3 100 3 100 75 -100 c114 -152 130
-142 130 86 l0 124 -30 0 -29 0 -3 -99 -3 -100 -74 100 c-64 84 -79 99 -103
99 l-28 0 0 -155z"/>
<path d="M6804 2313 c-32 -81 -60 -151 -62 -155 -2 -5 12 -8 31 -8 30 0 37 4
46 30 10 29 12 30 70 30 57 0 59 -1 70 -30 9 -26 15 -30 47 -30 25 0 35 4 31
13 -114 288 -118 297 -146 297 -26 0 -31 -8 -87 -147z m108 7 l16 -50 -38 0
-38 0 16 50 c9 28 19 50 22 50 3 0 13 -22 22 -50z"/>
<path d="M7180 2305 l0 -155 30 0 c30 0 30 1 30 55 0 54 1 55 28 55 24 0 32
-8 55 -55 25 -51 29 -55 62 -55 19 0 35 2 35 5 0 2 -15 30 -34 62 -32 54 -33
58 -16 70 32 22 43 76 26 117 -19 45 -46 56 -142 56 l-74 0 0 -155z m149 91
c7 -8 11 -27 9 -43 -3 -26 -7 -28 -50 -31 l-48 -3 0 45 0 46 39 0 c21 0 44 -6
50 -14z"/>
<path d="M7572 2305 l-4 -155 36 0 36 0 0 155 0 155 -32 0 -33 0 -3 -155z"/>
<path d="M7845 2318 c-31 -79 -59 -149 -62 -155 -4 -9 6 -13 30 -13 30 0 37 4
46 30 10 29 12 30 70 30 57 0 59 -1 70 -30 8 -26 15 -30 46 -30 l35 0 -13 33
c-7 17 -35 87 -62 155 -45 114 -50 122 -76 122 -25 0 -30 -8 -84 -142z m107 2
l16 -50 -40 0 c-28 0 -38 4 -34 13 2 6 10 29 17 50 7 20 15 37 18 37 3 0 13
-23 23 -50z"/>
</g>
</svg>
